<svg xmlns="http://www.w3.org/2000/svg" viewBox="0 0 600 720"><defs><linearGradient id="b" x2="0" y2="1"><stop stop-color="#3a1830"/><stop offset="1" stop-color="#071117"/></linearGradient><filter id="s"><feDropShadow dx="0" dy="12" stdDeviation="12" flood-opacity=".5"/></filter></defs><rect width="600" height="720" rx="36" fill="url(#b)"/><path d="M0 540L600 430V720H0Z" fill="#ff5f78" opacity=".12"/><g opacity=".28" stroke="#ff5f78" stroke-width="7"><path d="M35 95h150M415 95h150M45 145h90M465 145h90"/><circle cx="70" cy="590" r="34"/><circle cx="530" cy="590" r="34"/></g><text x="300" y="665" text-anchor="middle" fill="#ff5f78" font-family="sans-serif" font-weight="bold" font-size="26" letter-spacing="5">PARTENAIRES</text><g filter="url(#s)"><path d="M130 620q12-190 170-190t170 190" fill="#3a1830" stroke="#ff5f78" stroke-width="7"/><path d="M205 472l95 95 95-95-30-28H235Z" fill="#f1f3f0"/><path d="M236 374h128v110q-64 62-128 0Z" fill="#9b5f3e"/><ellipse cx="300" cy="280" rx="119" ry="145" fill="#9b5f3e"/><path d="M180 285q0-166 120-166 119 0 121 160l-45-62q-77 31-166 5Z" fill="#21150f"/><path d="M202 253q-28 5-19 65 7 43 36 34M398 253q28 5 19 65-7 43-36 34" fill="#9b5f3e"/><ellipse cx="253" cy="296" rx="10" ry="8" fill="#172027"/><ellipse cx="347" cy="296" rx="10" ry="8" fill="#172027"/><path d="M275 360q25 17 50 0" fill="none" stroke="#7f473b" stroke-width="7" stroke-linecap="round"/><path d="M300 306l-8 34h22" fill="none" stroke="#9f674e" stroke-width="5" stroke-linecap="round"/></g><circle cx="490" cy="215" r="54" fill="#ff5f78"/><path d="M466 215h48M490 191v48" stroke="#fff" stroke-width="10" stroke-linecap="round"/></svg>