<svg xmlns="http://www.w3.org/2000/svg" xmlns:xlink="http://www.w3.org/1999/xlink" viewBox="0 0 1800 1120" role="img"><title>Five fictional formula cars showing visual progression at common scale</title><defs><linearGradient id="b" y2="1"><stop stop-color="#070b14"/><stop offset="1" stop-color="#182235"/></linearGradient></defs><rect width="1800" height="1120" fill="url(#b)"/><text x="80" y="78" fill="#fff" font-family="sans-serif" font-size="45" font-weight="900">MONOPLACE PROGRESSION · SAME VISUAL SCALE</text><text x="82" y="118" fill="#94a3b8" font-family="sans-serif" font-size="21">WIDTH  ↑   HEIGHT  ↓   AERO COMPLEXITY  ↑   PRESENCE  ↑</text><g><rect x="60" y="150" width="1680" height="165" rx="22" fill="#111827" stroke="#263348"/><rect x="60" y="150" width="12" height="165" rx="6" fill="#f59e0b"/><text x="105" y="208" fill="#fff" font-family="sans-serif" font-size="32" font-weight="900">F4</text><text x="105" y="242" fill="#94a3b8" font-family="sans-serif" font-size="16">LEVEL 1 / 5</text><g transform="translate(390 78) scale(0.56)"><image href="../f4/car/future_car_f4_01_side.svg" width="960" height="480"/></g><g transform="translate(1120 175)"><rect width="550" height="18" rx="9" fill="#263348"/><rect width="160" height="18" rx="9" fill="#2563eb"/><text y="52" fill="#cbd5e1" font-family="sans-serif" font-size="16">AERO / TECHNICAL PRESENCE</text></g></g><g><rect x="60" y="335" width="1680" height="165" rx="22" fill="#111827" stroke="#263348"/><rect x="60" y="335" width="12" height="165" rx="6" fill="#f8fafc"/><text x="105" y="393" fill="#fff" font-family="sans-serif" font-size="32" font-weight="900">REGIONAL</text><text x="105" y="427" fill="#94a3b8" font-family="sans-serif" font-size="16">LEVEL 2 / 5</text><g transform="translate(378 258) scale(0.5850000000000001)"><image href="../regional/car/future_car_regional_01_side.svg" width="960" height="480"/></g><g transform="translate(1120 360)"><rect width="550" height="18" rx="9" fill="#263348"/><rect width="250" height="18" rx="9" fill="#991b1b"/><text y="52" fill="#cbd5e1" font-family="sans-serif" font-size="16">AERO / TECHNICAL PRESENCE</text></g></g><g><rect x="60" y="520" width="1680" height="165" rx="22" fill="#111827" stroke="#263348"/><rect x="60" y="520" width="12" height="165" rx="6" fill="#fbbf24"/><text x="105" y="578" fill="#fff" font-family="sans-serif" font-size="32" font-weight="900">F3</text><text x="105" y="612" fill="#94a3b8" font-family="sans-serif" font-size="16">LEVEL 3 / 5</text><g transform="translate(366 438) scale(0.6100000000000001)"><image href="../f3/car/future_car_f3_01_side.svg" width="960" height="480"/></g><g transform="translate(1120 545)"><rect width="550" height="18" rx="9" fill="#263348"/><rect width="340" height="18" rx="9" fill="#047857"/><text y="52" fill="#cbd5e1" font-family="sans-serif" font-size="16">AERO / TECHNICAL PRESENCE</text></g></g><g><rect x="60" y="705" width="1680" height="165" rx="22" fill="#111827" stroke="#263348"/><rect x="60" y="705" width="12" height="165" rx="6" fill="#f8fafc"/><text x="105" y="763" fill="#fff" font-family="sans-serif" font-size="32" font-weight="900">F2</text><text x="105" y="797" fill="#94a3b8" font-family="sans-serif" font-size="16">LEVEL 4 / 5</text><g transform="translate(354 618) scale(0.635)"><image href="../f2/car/future_car_f2_01_side.svg" width="960" height="480"/></g><g transform="translate(1120 730)"><rect width="550" height="18" rx="9" fill="#263348"/><rect width="430" height="18" rx="9" fill="#ea580c"/><text y="52" fill="#cbd5e1" font-family="sans-serif" font-size="16">AERO / TECHNICAL PRESENCE</text></g></g><g><rect x="60" y="890" width="1680" height="165" rx="22" fill="#111827" stroke="#263348"/><rect x="60" y="890" width="12" height="165" rx="6" fill="#22d3ee"/><text x="105" y="948" fill="#fff" font-family="sans-serif" font-size="32" font-weight="900">APEX</text><text x="105" y="982" fill="#94a3b8" font-family="sans-serif" font-size="16">LEVEL 5 / 5</text><g transform="translate(342 798) scale(0.66)"><image href="../apex/car/future_car_apex_01_side.svg" width="960" height="480"/></g><g transform="translate(1120 915)"><rect width="550" height="18" rx="9" fill="#263348"/><rect width="520" height="18" rx="9" fill="#6d28d9"/><text y="52" fill="#cbd5e1" font-family="sans-serif" font-size="16">AERO / TECHNICAL PRESENCE</text></g></g></svg>