<svg xmlns="http://www.w3.org/2000/svg" viewBox="0 0 960 480" role="img"><title>REGIONAL fictional formula car side view</title><defs><linearGradient id="paint" x2="0" y2="1"><stop stop-color="var(--primary, #2563eb)"/><stop offset="1" stop-color="var(--primary-dark, #172554)"/></linearGradient><linearGradient id="metal"><stop stop-color="#64748b"/><stop offset=".5" stop-color="#e2e8f0"/><stop offset="1" stop-color="#475569"/></linearGradient><filter id="blur"><feGaussianBlur stdDeviation="8"/></filter></defs><ellipse cx="480" cy="386" rx="340" ry="22" fill="#000" opacity=".18" filter="url(#blur)"/><g transform="translate(287 310)"><circle r="59" fill="#07090d"/><circle r="32" fill="#273244"/><circle r="13" fill="#cbd5e1"/></g><g transform="translate(678 310)"><circle r="59" fill="#07090d"/><circle r="32" fill="#273244"/><circle r="13" fill="#cbd5e1"/></g><path d="M182 300L332 270L477 214L612 232L763 274L798 304L592 322H222Z" fill="#991b1b" stroke="#0f172a" stroke-width="5"/><path d="M367 278L482 223L597 251L562 292Z" fill="#111827"/><path d="M454 238Q512 183 574 248" fill="#111827"/><path d="M484 230Q512 200 542 233M513 204v55" fill="none" stroke="#111827" stroke-width="10"/><path d="M157 270h113v13H157M748 218h60v18h-58" stroke="#f8fafc" stroke-width="7" fill="none"/><rect x="372" y="268" width="64" height="43" rx="8" fill="#fff"/><text x="404" y="301" font-family="sans-serif" font-size="30" font-weight="900" text-anchor="middle">27</text></svg>