<svg xmlns="http://www.w3.org/2000/svg" width="512" height="256" viewBox="0 0 512 256"><defs></defs><ellipse cx="256" cy="210" rx="205" ry="25" fill="#05080d" opacity=".55"/><g fill="#171d28" stroke="#05080d" stroke-width="7"><rect x="90" y="85" width="62" height="72" rx="16"/><rect x="360" y="85" width="62" height="72" rx="16"/><rect x="103" y="172" width="66" height="57" rx="16"/><rect x="346" y="172" width="66" height="57" rx="16"/></g><path d="M125 122l82-56h102l81 56-35 82H158z" fill="#18d3c5" stroke="#081019" stroke-width="5"/><path d="M139 120h237l-22 69H174z" fill="#3d7cff"/><path d="M202 78h108l31 52H173z" fill="#121824"/><circle cx="256" cy="92" r="25" fill="#ffb547" stroke="#f5f7fa" stroke-width="4"/><path d="M130 153h252" stroke="#ffb547" stroke-width="11"/><path d="M183 204h146" stroke="#738196" stroke-width="8"/><rect x="229" y="139" width="54" height="46" rx="10" fill="#f5f7fa"/><circle cx="356" cy="128" r="24" fill="#273244"/><path d="M352 105v46M366 108v40" stroke="#8995a5" stroke-width="5"/></svg>